<svg width="541" height="195" viewBox="0 0 541 195" fill="none" xmlns="http://www.w3.org/2000/svg">
<rect width="13" height="150" fill="#422C8E"/>
<rect x="19" width="13" height="79" fill="#422C8E"/>
<rect x="19" y="113" width="13" height="37" fill="#422C8E"/>
<path d="M56 43L70 43L70 49L32 79L32 61L56 43Z" fill="#422C8E"/>
<path d="M19 88.5L19 79L32 79L19 88.5Z" fill="#422C8E"/>
<path d="M19.0016 100L19.0016 113H32L19.0016 100Z" fill="#422C8E"/>
<path d="M32 113L68.5 150H50L32 131V113Z" fill="#422C8E"/>
<path d="M70 56V72.5L41 95.5L95.5 150H86H76L21 94L70 56Z" fill="#422C8E"/>
<rect x="70.0001" y="43" width="12" height="71" fill="#DC1F19"/>
<rect x="87.0001" y="43" width="12" height="62" fill="#DC1F19"/>
<rect x="136" y="43" width="12" height="62" fill="#DC1F19"/>
<path d="M98.5001 97.5L87.5001 103C87.0001 135.5 141 145.5 147.5 104.5L136.5 97.5C135.5 128.5 99.5001 127.5 98.5001 97.5Z" fill="#DC1F19" stroke="#DC1F19"/>
<path d="M81 100L70.4993 114C75 155.5 149 166.5 166 115.5L153.5 95.5C158 149.5 81 153.5 81 100Z" fill="#DC1F19" stroke="#DC1F19"/>
<rect x="153" y="43" width="14" height="152" fill="#DC1F19"/>
<rect x="173" y="133" width="13" height="62" fill="#DC1F19"/>
<rect x="173" y="43" width="13" height="18" fill="#DC1F19"/>
<ellipse cx="211" cy="96.5" rx="34" ry="33.5" stroke="#DC1F19" stroke-width="10"/>
<path d="M255 87.5C235.5 38.5 193 47 173.5 74V64.5V54C208.5 34 229 37.5 255 61.5V87.5Z" fill="#DC1F19" stroke="#DC1F19"/>
<path d="M255 107C234 153.5 188 144.852 173.5 116.5V127V137.5C212.5 161.5 245 147.5 259.5 122.5L255 107Z" fill="#DC1F19" stroke="#DC1F19"/>
<rect x="254" y="2" width="13" height="105" fill="#422C8E"/>
<rect x="272" y="2" width="12" height="105" fill="#422C8E"/>
<rect x="355" y="120" width="12" height="58" transform="rotate(90 355 120)" fill="#422C8E"/>
<rect x="360" y="138" width="12" height="65" transform="rotate(90 360 138)" fill="#422C8E"/>
<path d="M300.5 120C288 120 284 110.5 284 105L278.5 107C278.5 107 272 94.0002 272 107C272 120 287 132.5 297 132C307 131.5 300.5 120 300.5 120Z" fill="#422C8E"/>
<path d="M295.337 138C277 135 267.489 115.1 267 103.5L261.647 106.945C261.647 106.945 254 92.8894 254 106.945C254 121.001 271.346 148.947 295.337 149.945C319.329 150.944 295.337 138 295.337 138Z" fill="#422C8E"/>
<path d="M366.687 75.2464C358.966 86.4555 358.083 101.004 364.5 113.5L427 82.5C420.353 71.0177 412.609 64.8311 403.219 62.3951C389.827 58.9211 374.534 63.8525 366.687 75.2464Z" fill="#422C8E" stroke="#422C8E"/>
<path d="M418.5 121.5C404.5 131.5 382.5 134 368 118.5L406.5 99L418.5 121.5Z" fill="#422C8E" stroke="#422C8E"/>
<path d="M439.5 82.5L406.5 99L411.5 108.5L439.5 94V82.5Z" fill="#422C8E" stroke="#422C8E"/>
<path d="M426 139.5L421.5 130C406.055 141.773 389 142.5 355 132C371.5 151 402.5 155.5 426 139.5Z" fill="#422C8E" stroke="#422C8E"/>
<path d="M344.52 75.3708L355.105 77.4204C347.151 95.5308 350.616 112.465 369.446 143.244C346.433 131.777 334.327 102.448 344.52 75.3708Z" fill="#422C8E" stroke="#422C8E"/>
<path d="M388 139.5C370.269 133.517 362 132 350 104.5C350 128.5 356.255 124.723 365 135C380.076 140.467 379.56 142.669 388 139.5Z" fill="#422C8E" stroke="#422C8E"/>
<path d="M398 42.5C438.5 44.1644 448.5 85.5 448.5 85.5H437.5C420 37.5 369 48.4961 355.5 77C342 105.504 338.5 90.5 344 76.5C344 76.5 357 40.815 398 42.5Z" fill="#422C8E" stroke="#422C8E"/>
<rect x="449" y="150" width="11" height="65" transform="rotate(-180 449 150)" fill="#422C8E"/>
<rect x="467" y="150" width="11" height="64" transform="rotate(-180 467 150)" fill="#422C8E"/>
<rect x="478" y="54" width="11" height="63" transform="rotate(-90 478 54)" fill="#422C8E"/>
<rect x="481" y="71" width="11" height="60" transform="rotate(-90 481 71)" fill="#422C8E"/>
<path d="M448.5 87.5L441.5 69C444.88 60.8785 462.5 41.5 483.5 43.5V53.5C463.5 53.5 448.5 69 448.5 87.5Z" fill="#422C8E" stroke="#422C8E"/>
<path d="M466.5 87.5L456.5 88C456 70.5 470 59.5 485 60.5V70.5C476.487 71.1443 466.661 77.5676 466.5 87.5Z" fill="#422C8E" stroke="#422C8E"/>
</svg>
